<?xml version="1.0" encoding="utf-8"?>
<svg viewBox="0 0 500 500" xmlns="http://www.w3.org/2000/svg">
  <defs>
    <linearGradient x1="0.505687951%" y1="7.32378196%" x2="100%" y2="93.1122449%" id="linearGradient-3">
      <stop stop-color="#0173EC" offset="0.0008"/>
      <stop stop-color="#743FE5" offset="1"/>
    </linearGradient>
    <linearGradient x1="0.421584559%" y1="0.421584559%" x2="100%" y2="100%" id="linearGradient-6">
      <stop stop-color="#0173EC" offset="0.0008"/>
      <stop stop-color="#743FE5" offset="1"/>
    </linearGradient>
  </defs>
  <g id="Symbols" stroke="none" stroke-width="1" fill="none" fill-rule="evenodd" transform="matrix(1, 0, 0, 1, 156.234316, 252.239674)">
    <g id="Logo/Dark" transform="matrix(1, 0, 0, 1, 5.23365, -3.738317)">
      <g id="Logo/Logo-Dark">
        <g id="Logo">
          <g id="Group">
            <g id="Group-2">
              <g id="Group-12" transform="translate(2.171429, 0.000000)">
                <mask id="mask-2" fill="white">
                  <path d="M0.498342857,9.2267619 C1.57899048,3.18331429 7.41904762,-0.780990476 13.4349905,0.445866667 C19.3387429,1.64992381 23.0555048,7.55584762 21.9231048,13.4737143 L21.9231048,13.4737143 L21.5007619,15.6806095 C21.0585143,17.9899238 22.5727238,20.2203429 24.8816762,20.6622286 C29.6009143,21.565181 32.8938857,26.0701714 32.0126476,30.7930286 C31.1299619,35.5205905 26.5630857,38.6203048 21.8438476,37.6952762 C17.1293143,36.7709714 14.1580762,32.0473905 15.0610286,27.3281524 C15.5025524,25.0188381 13.9890667,22.788781 11.6797524,22.3468952 L11.6797524,22.3468952 L9.47249524,21.9245524 C3.55462857,20.7921524 -0.562038095,15.158019 0.498342857,9.2267619 Z" transform="matrix(1, 0, 0, 1, 0, 0)"/>
                </mask>
                <g id="Clip-11"/>
                <polygon id="Fill-10" fill="url(#linearGradient-3)" mask="url(#mask-2)" points="-2.08552381 39.2229333 39.9144762 39.2229333 39.9144762 0.222933333 -2.08552381 0.222933333"/>
              </g>
              <g id="Group-15" transform="translate(0.000000, 25.695238)">
                <mask id="mask-5" fill="white">
                  <path d="M2.11062857,1.80554286 C-0.25912381,4.17493333 -0.25912381,8.01691429 2.11062857,10.3863048 C4.47965714,12.7556952 8.3216381,12.7556952 10.6913905,10.3863048 C13.060419,8.01691429 13.060419,4.17493333 10.6913905,1.80554286 C8.3216381,-0.563847619 4.47965714,-0.563847619 2.11062857,1.80554286" transform="matrix(1, 0, 0, 1, 0, 0)"/>
                </mask>
                <g id="Clip-14"/>
                <path d="M2.11062857,1.80554286 C-0.25912381,4.17493333 -0.25912381,8.01691429 2.11062857,10.3863048 C4.47965714,12.7556952 8.3216381,12.7556952 10.6913905,10.3863048 C13.060419,8.01691429 13.060419,4.17493333 10.6913905,1.80554286 C8.3216381,-0.563847619 4.47965714,-0.563847619 2.11062857,1.80554286" id="Fill-13" fill="url(#linearGradient-6)" mask="url(#mask-5)"/>
              </g>
            </g>
          </g>
        </g>
      </g>
    </g>
  </g>
</svg>