<svg width="118" height="38" viewBox="0 0 118 38" fill="none" xmlns="http://www.w3.org/2000/svg">
<g clip-path="url(#clip0_2_19)">
<mask id="mask0_2_19" style="mask-type:alpha" maskUnits="userSpaceOnUse" x="2" y="0" width="33" height="38">
<path d="M2.66977 9.22676C3.75041 3.18332 9.59047 -0.780989 15.6064 0.445868C21.5102 1.64993 25.2269 7.55585 24.0945 13.4737L23.6722 15.6806C23.2299 17.9899 24.7441 20.2203 27.0531 20.6622C31.7723 21.5652 35.0653 26.0702 34.1841 30.793C33.3014 35.5206 28.7345 38.6203 24.0153 37.6953C19.3007 36.771 16.3295 32.0474 17.2325 27.3282C17.674 25.0188 16.1605 22.7888 13.8512 22.3469L11.6439 21.9246C5.72605 20.7922 1.60938 15.158 2.66977 9.22676Z" fill="white"/>
</mask>
<g mask="url(#mask0_2_19)">
<path fill-rule="evenodd" clip-rule="evenodd" d="M0.085907 39.2229H42.0859V0.222935H0.085907V39.2229Z" fill="url(#paint0_linear_2_19)"/>
</g>
<mask id="mask1_2_19" style="mask-type:alpha" maskUnits="userSpaceOnUse" x="0" y="25" width="13" height="13">
<path d="M2.11063 27.5008C-0.259125 29.8702 -0.259125 33.7122 2.11063 36.0815C4.47966 38.4509 8.32164 38.4509 10.6914 36.0815C13.0604 33.7122 13.0604 29.8702 10.6914 27.5008C8.32164 25.1314 4.47966 25.1314 2.11063 27.5008Z" fill="white"/>
</mask>
<g mask="url(#mask1_2_19)">
<path fill-rule="evenodd" clip-rule="evenodd" d="M2.11063 27.5008C-0.259125 29.8702 -0.259125 33.7122 2.11063 36.0815C4.47966 38.4509 8.32164 38.4509 10.6914 36.0815C13.0604 33.7122 13.0604 29.8702 10.6914 27.5008C8.32164 25.1314 4.47966 25.1314 2.11063 27.5008Z" fill="url(#paint1_linear_2_19)"/>
</g>
<path d="M42.0824 34V8.54545H57.4446V11.2798H45.1648V19.8807H56.6491V22.6151H45.1648V31.2656H57.6435V34H42.0824ZM62.6026 34V14.9091H65.5359V34H62.6026ZM64.0941 11.7273C63.5224 11.7273 63.0294 11.5326 62.6151 11.1431C62.209 10.7537 62.006 10.2855 62.006 9.73864C62.006 9.19176 62.209 8.7236 62.6151 8.33416C63.0294 7.94472 63.5224 7.75 64.0941 7.75C64.6658 7.75 65.1547 7.94472 65.5607 8.33416C65.975 8.7236 66.1822 9.19176 66.1822 9.73864C66.1822 10.2855 65.975 10.7537 65.5607 11.1431C65.1547 11.5326 64.6658 11.7273 64.0941 11.7273ZM70.9083 34V14.9091H73.7421V17.7926H73.941C74.289 16.848 74.9187 16.0816 75.8302 15.4933C76.7416 14.9049 77.7691 14.6108 78.9126 14.6108C79.128 14.6108 79.3973 14.6149 79.7204 14.6232C80.0436 14.6315 80.288 14.6439 80.4537 14.6605V17.6435C80.3543 17.6186 80.1265 17.5813 79.7702 17.5316C79.4221 17.4736 79.0534 17.4446 78.664 17.4446C77.7359 17.4446 76.9073 17.6393 76.1782 18.0288C75.4573 18.4099 74.8856 18.9402 74.463 19.6197C74.0487 20.2908 73.8415 21.0573 73.8415 21.919V34H70.9083Z" fill="black"/>
</g>
<defs>
<linearGradient id="paint0_linear_2_19" x1="0.298296" y1="3.07921" x2="39.4206" y2="39.4071" gradientUnits="userSpaceOnUse">
<stop offset="0.000844595" stop-color="#0173EC"/>
<stop offset="1" stop-color="#743FE5"/>
</linearGradient>
<linearGradient id="paint1_linear_2_19" x1="0.384472" y1="25.7749" x2="12.4682" y2="37.8586" gradientUnits="userSpaceOnUse">
<stop offset="0.000844595" stop-color="#0173EC"/>
<stop offset="1" stop-color="#743FE5"/>
</linearGradient>
<clipPath id="clip0_2_19">
<rect width="118" height="38" fill="white"/>
</clipPath>
</defs>
</svg>
